<?xml version="1.0" encoding="utf-8"?>
<!-- Generator: Adobe Illustrator 22.1.0, SVG Export Plug-In . SVG Version: 6.00 Build 0)  -->
<svg version="1.1" id="Layer_1" xmlns="http://www.w3.org/2000/svg" xmlns:xlink="http://www.w3.org/1999/xlink" x="0px" y="0px"
	 viewBox="0 0 499 499" style="enable-background:new 0 0 499 499;" xml:space="preserve">
<style type="text/css">
	.st0{fill:#E8E9E9;}
	.st1{fill:#424040;}
	.st2{fill:#3D3B3B;}
</style>
<path class="st0" d="M249.5,499C387.3,499,499,387.3,499,249.5S387.3,0,249.5,0S0,111.7,0,249.5S111.7,499,249.5,499"/>
<path class="st1" d="M142.4,309.4c10.8,0,20.3-2,28.7-5.9c8.3-3.9,15.3-9.2,21-16c5.7-6.7,10-14.6,12.9-23.4
	c3-8.9,4.4-18.4,4.4-28.5c0-6.9-0.8-13.2-2.3-18.8c-1.5-5.6-4-10.4-7.4-14.5s-7.8-7.2-13.1-9.5c-5.3-2.2-11.7-3.3-19.2-3.3h-31.8
	l-25.8,119.8L142.4,309.4L142.4,309.4z M170.1,154.4c27.1,0,47.5,6.4,61.1,19.3s20.5,31.1,20.5,54.7c0,16.5-2.3,31.9-7,46.1
	s-11.6,26.5-20.9,36.9c-9.2,10.4-20.8,18.5-34.7,24.4s-30.1,8.8-48.6,8.8H60.3l40.4-190.2L170.1,154.4L170.1,154.4z"/>
<g>
	<path class="st2" d="M312.5,155.7l-16.6,79.1h0.5l86.6-79.1h55.6l-91.7,77.8l58.6,111.1h-47.3l-43.6-84.9l-29.1,25.1l-12.6,59.8
		h-42l39.6-188.9H312.5z"/>
</g>
</svg>
