<?xml version="1.0" encoding="utf-8"?>
<!-- Generator: Adobe Illustrator 22.1.0, SVG Export Plug-In . SVG Version: 6.00 Build 0)  -->
<svg version="1.1" id="Layer_1" xmlns="http://www.w3.org/2000/svg" xmlns:xlink="http://www.w3.org/1999/xlink" x="0px" y="0px"
	 viewBox="0 0 1366 768" style="enable-background:new 0 0 1366 768;" xml:space="preserve">
<style type="text/css">
	.st0{fill:#E8E9E9;}
	.st1{fill:#424040;}
	.st2{fill:#3D3B3B;}
</style>
<path class="st0" d="M682.6,634c137.8,0,249.5-111.7,249.5-249.5S820.4,135,682.6,135S433.1,246.7,433.1,384.5S544.8,634,682.6,634"
	/>
<path class="st1" d="M575.5,444.4c10.8,0,20.3-2,28.7-5.9c8.3-3.9,15.3-9.2,21-16c5.7-6.7,10-14.6,12.9-23.4
	c3-8.9,4.4-18.4,4.4-28.5c0-6.9-0.8-13.2-2.3-18.8c-1.5-5.6-4-10.4-7.4-14.5c-3.4-4.1-7.8-7.2-13.1-9.5c-5.3-2.2-11.7-3.3-19.2-3.3
	h-31.8l-25.8,119.8H575.5z M603.2,289.4c27.1,0,47.5,6.4,61.1,19.3c13.6,12.9,20.5,31.1,20.5,54.7c0,16.5-2.3,31.9-7,46.1
	c-4.7,14.2-11.6,26.5-20.9,36.9c-9.2,10.4-20.8,18.5-34.7,24.4c-13.9,5.9-30.1,8.8-48.6,8.8h-80.2l40.4-190.2H603.2z"/>
<g>
	<path class="st2" d="M745.6,290.7l-16.6,79.1h0.5l86.6-79.1h55.6l-91.7,77.8l58.6,111.1h-47.3l-43.6-84.9l-29.1,25.1l-12.6,59.8
		h-42l39.6-188.9H745.6z"/>
</g>
</svg>
